<?xml version="1.0" encoding="utf-8"?>
<!-- Generator: Adobe Illustrator 24.1.2, SVG Export Plug-In . SVG Version: 6.00 Build 0)  -->
<svg version="1.1" id="Layer_1" xmlns="http://www.w3.org/2000/svg" xmlns:xlink="http://www.w3.org/1999/xlink" x="0px" y="0px"
	 viewBox="0 0 200 200" style="enable-background:new 0 0 200 200;" xml:space="preserve">
<style type="text/css">
	.st0{fill:#FFFFFF;}
	.st1{fill:#FD4848;}
	.st2{fill:#C11A1A;}
	.st3{opacity:0.5;fill:#C11A1A;}
</style>
<g>
	<g>
		<path class="st0" d="M75.8,75.6c0.5,0.3,1.1,0.5,1.7,0.5h0c1.2,0,2.4-0.7,2.9-1.9c0.3-0.7,0.3-1.4,0.1-2c-1.8-7.7-0.9-14,2.5-18.5
			c4-5.4,5.8-12.3,4.8-18.4c-0.9-5.5-3.9-10-8.5-13.1c-1-0.7-2.4-0.7-3.5,0c-1,0.7-1.5,2-1.2,3.2c1.9,8.1,0.2,13.3-4.2,21.1
			c-2.7,4.9-3.8,10.4-3.1,15.4C68,67.6,71,72.4,75.8,75.6z"/>
		<path class="st0" d="M101,74c0.5,0.3,1,0.5,1.6,0.5h0c1.2,0,2.2-0.7,2.7-1.7c0.3-0.7,0.3-1.3,0.1-2c-1.3-5.9-0.7-10.6,1.9-14.1
			c3.2-4.3,4.7-9.8,3.8-14.8c-0.7-4.4-3.1-8.1-6.8-10.6c-1-0.6-2.3-0.7-3.3,0c-1,0.7-1.4,1.9-1.2,3c1.5,6.2,0.1,10.2-3.2,16.2
			c-2.2,3.9-3.1,8.3-2.5,12.3C94.7,67.6,97.1,71.4,101,74z"/>
		<path class="st0" d="M180.4,92.5c-1.9-2.3-4.7-3.5-7.8-3.5h-14.4c0.1-2.4-0.3-5.4-2-7.4c-1.3-1.5-3-2.3-5.2-2.3H28.1
			c-3.2,0-5.1,1.4-6.1,2.6c-2,2.4-2.3,6-1.9,8.5c3.4,20.9,10.7,39.8,20.7,53.4c7.3,10,16,17.2,25.7,21.4H33.1
			c-4.1,0-7.7,3.1-7.9,7.1c-0.3,4.4,3.2,8.1,7.6,8.1h112.4c4.1,0,7.7-3.1,7.9-7.1c0.3-4.4-3.2-8.1-7.6-8.1h-33.7
			c8.1-3.5,15.3-8.9,21.7-16.3c11-0.9,22-6.2,31.3-15c9.6-9,16.1-20.5,17.9-31.5C183.1,101,183.5,96.2,180.4,92.5z M146.3,129.5
			c4.1-8.5,7-17.2,9.1-25.2H167C164,113.7,156.1,123.7,146.3,129.5z"/>
	</g>
	<g>
	</g>
	<g>
	</g>
	<g>
	</g>
	<g>
	</g>
	<g>
	</g>
	<g>
	</g>
	<g>
	</g>
	<g>
	</g>
	<g>
	</g>
	<g>
	</g>
	<g>
	</g>
	<g>
	</g>
	<g>
	</g>
	<g>
	</g>
	<g>
	</g>
</g>
<g>
	<g>
		<path class="st1" d="M144.3,178.9H55.6c-18.8,0-34.1-15.3-34.1-34.1V56.1C21.5,37.3,36.8,22,55.6,22h88.7
			c18.8,0,34.1,15.3,34.1,34.1v88.7C178.4,163.6,163.1,178.9,144.3,178.9z"/>
		<path class="st2" d="M144.3,181.5H55.6c-20.2,0-36.7-16.5-36.7-36.7V56.1c0-20.2,16.5-36.7,36.7-36.7h88.7
			c20.2,0,36.7,16.5,36.7,36.7v88.7C181,165,164.5,181.5,144.3,181.5z M55.6,24.6c-17.4,0-31.5,14.1-31.5,31.5v88.7
			c0,17.4,14.1,31.5,31.5,31.5h88.7c17.4,0,31.5-14.1,31.5-31.5V56.1c0-17.4-14.1-31.5-31.5-31.5H55.6z"/>
	</g>
	<g>
		<path class="st2" d="M99.3,39.3v59.3c0,1.6,1.3,2.9,2.9,2.9h59.3c1.6,0,2.9-1.3,2.9-3c-1.5-33.6-28.5-60.6-62.1-62.1
			C100.7,36.3,99.3,37.6,99.3,39.3z"/>
		<path class="st3" d="M101.3,162v-59.3c0-1.6-1.3-2.9-2.9-2.9H39.1c-1.6,0-2.9,1.3-2.9,3c1.5,33.6,28.5,60.6,62.1,62.1
			C99.9,164.9,101.3,163.6,101.3,162z"/>
	</g>
	<path class="st0" d="M98.2,142.1h5.3c1.4,0,2.6,1.2,2.6,2.6V157c0,1.4-1.2,2.6-2.6,2.6h-5.3c-1.4,0-2.6-1.2-2.6-2.6v-12.3
		C95.6,143.3,96.8,142.1,98.2,142.1z M43.5,94.6h12.3c1.4,0,2.6,1.2,2.6,2.6v7.9c0,1.4-1.2,2.6-2.6,2.6H43.5c-1.4,0-2.6-1.2-2.6-2.6
		v-7.9C40.9,95.8,42.1,94.6,43.5,94.6z M139.8,127.4l5,2.9c1.3,0.8,3,0.2,3.6-1.1c0,0,0,0,0,0c0.6-1.2,0.1-2.7-1-3.4l-5-2.9
		c-1.2-0.7-2.8-0.3-3.6,1l0,0C138.1,125.1,138.5,126.7,139.8,127.4z M121.4,143.8l4,6.8c0.8,1.3,2.5,1.7,3.7,0.8c0,0,0,0,0,0
		c1.1-0.8,1.4-2.3,0.8-3.4l-4-6.8c-0.7-1.2-2.3-1.7-3.6-0.9l0,0C121.1,141,120.7,142.6,121.4,143.8z M70.2,151.7L70.2,151.7
		c-1.3-0.8-1.7-2.3-1-3.6l4-7c0.7-1.2,2.3-1.7,3.6-0.9l0,0c1.2,0.7,1.7,2.3,0.9,3.6l-4.1,7C73,152,71.4,152.5,70.2,151.7z
		 M48.9,130.5L48.9,130.5c-0.7-1.3-0.3-2.9,0.9-3.6l7-4c1.2-0.7,2.8-0.3,3.6,1l0,0c0.7,1.2,0.3,2.8-1,3.6l-7,4
		C51.2,132.2,49.6,131.8,48.9,130.5z M56.8,79.5l-7-4c-1.2-0.7-1.7-2.3-1-3.6l0,0c0.7-1.2,2.3-1.7,3.6-1l7,4c1.2,0.7,1.7,2.3,1,3.6
		l0,0C59.6,79.8,58,80.2,56.8,79.5z M73.2,61.2l-4-6.9c-0.7-1.2-0.3-2.8,0.9-3.6l0.1,0c1.2-0.7,2.8-0.3,3.6,0.9l4,6.9
		c0.7,1.2,0.3,2.8-0.9,3.6l-0.1,0C75.6,62.8,74,62.4,73.2,61.2z"/>
</g>
</svg>
