<?xml version="1.0" encoding="utf-8"?>
<!-- Generator: Adobe Illustrator 24.1.2, SVG Export Plug-In . SVG Version: 6.00 Build 0)  -->
<svg version="1.1" id="Layer_1" xmlns="http://www.w3.org/2000/svg" xmlns:xlink="http://www.w3.org/1999/xlink" x="0px" y="0px"
	 viewBox="0 0 200 200" style="enable-background:new 0 0 200 200;" xml:space="preserve">
<style type="text/css">
	.st0{fill:#FFFFFF;}
</style>
<path class="st0" d="M160.1,0.7H39.9C17.9,0.7,0,18.5,0,40.5v120.3c0,22,17.9,39.9,39.9,39.9h120.3c22,0,39.9-17.9,39.9-39.9V40.5
	C200,18.5,182.1,0.7,160.1,0.7z M193,159.1c0,19.1-15.5,34.6-34.6,34.6H41.6C22.5,193.7,7,178.2,7,159.1V42.3
	C7,23.2,22.5,7.7,41.6,7.7h116.8c19.1,0,34.6,15.5,34.6,34.6V159.1z"/>
<path class="st0" d="M84.9,139.7h-6.8c-2.8,0-5.1-2.3-5.1-5.1V66.8c0-2.8,2.3-5.1,5.1-5.1h6.8c2.8,0,5.1,2.3,5.1,5.1v67.8
	C90,137.4,87.7,139.7,84.9,139.7z"/>
<path class="st0" d="M118.9,139.7h-6.8c-2.8,0-5.1-2.3-5.1-5.1V66.8c0-2.8,2.3-5.1,5.1-5.1h6.8c2.8,0,5.1,2.3,5.1,5.1v67.8
	C124,137.4,121.7,139.7,118.9,139.7z"/>
</svg>
