<?xml version="1.0" encoding="utf-8"?>
<!-- Generator: Adobe Illustrator 24.1.2, SVG Export Plug-In . SVG Version: 6.00 Build 0)  -->
<svg version="1.1" id="Capa_1" xmlns="http://www.w3.org/2000/svg" xmlns:xlink="http://www.w3.org/1999/xlink" x="0px" y="0px"
	 viewBox="0 0 762.9 273.7" style="enable-background:new 0 0 762.9 273.7;" xml:space="preserve">
<style type="text/css">
	.st0{fill:#FD4848;}
	.st1{fill:#88CB00;}
	.st2{fill:#FFFFFF;}
	.st3{fill:#C11A1A;}
	.st4{opacity:0.5;fill:#C11A1A;}
</style>
<g>
	<g>
		<path class="st0" d="M378.4,86.7c0,22.8-15.7,40-36.8,40c-9.3,0-17.2-3.4-23.1-9.4v36.1h-21.9V48.5h21.9v7.6
			c5.8-6,13.8-9.4,23.1-9.4C362.7,46.7,378.4,63.9,378.4,86.7z M355.9,86.7c0-10.8-7.9-18.9-18.7-18.9c-10.8,0-18.7,8.1-18.7,18.9
			c0,10.8,7.9,18.9,18.7,18.9C348,105.5,355.9,97.5,355.9,86.7z"/>
		<path class="st0" d="M428.2,46.7c-23.5,0-41.2,17.2-41.2,40c0,18,11.1,32.5,27.3,37.8c0.3-7.3,6-12.7,13.5-12.7
			c7.6,0,13.4,5.5,13.6,12.9c16.6-5.1,27.9-19.8,27.9-38C469.4,63.9,451.7,46.7,428.2,46.7z M428.2,105.5
			c-10.8,0-18.7-8.1-18.7-18.9c0-10.8,7.9-18.9,18.7-18.9c10.8,0,18.7,8.1,18.7,18.9C446.9,97.5,439,105.5,428.2,105.5z"/>
		<path class="st0" d="M602.9,75v49.8h-21.9V81.6c0-8.2-5.2-13.8-13.3-13.8c-8.4,0-14.2,5.7-14.2,14.1v43h-21.9V81.6
			c0-8.2-5.2-13.8-13.3-13.8c-8.4,0-14.2,5.7-14.2,14.1v43h-21.9V48.5h21.9v7.3c5.5-6,12.9-9.1,21.7-9.1c10.3,0,18.6,4.3,23.4,11.8
			c6.1-7.8,14.8-11.8,25.4-11.8C591.9,46.7,602.9,57.9,602.9,75z"/>
		<path class="st0" d="M614.5,86.7c0-22.8,17.7-40,41.2-40s41.2,17.2,41.2,40c0,22.8-17.7,40-41.2,40S614.5,109.4,614.5,86.7z
			 M674.3,86.7c0-10.8-7.9-18.9-18.7-18.9s-18.7,8.1-18.7,18.9c0,10.8,7.9,18.9,18.7,18.9S674.3,97.5,674.3,86.7z"/>
		<path class="st1" d="M383.8,165.2v28c0,5.8,3.1,9.1,9.6,9.1c3.9,0,7.2-1.2,10-2.7v20.5c-4.5,2.2-8.8,3.3-14.7,3.3
			c-18.6,0-26.8-10.9-26.8-26.6v-31.6h-11.5v-19.9H362v-18.9h21.9v18.9h19.6v19.9H383.8z"/>
		<path class="st2" d="M441.5,124.7c-4.1,1.3-8.6,2-13.2,2c-4.9,0-9.5-0.8-13.8-2.1c0.3-7.3,6-12.7,13.5-12.7
			C435.5,111.8,441.3,117.3,441.5,124.7z"/>
		<path class="st1" d="M441.5,125.1c0,7.8-5.8,13.5-13.6,13.5c-7.6,0-13.5-5.7-13.5-13.5c0-0.2,0-0.4,0-0.6
			c4.3,1.4,8.9,2.1,13.8,2.1c4.7,0,9.1-0.7,13.2-2C441.5,124.8,441.5,125,441.5,125.1z"/>
		<rect x="416.9" y="145.3" class="st1" width="21.9" height="76.3"/>
		<path class="st1" d="M576.8,171.8v49.8h-21.9v-43.3c0-8.2-5.2-13.8-13.3-13.8c-8.4,0-14.2,5.7-14.2,14.1v43h-21.9v-43.3
			c0-8.2-5.2-13.8-13.3-13.8c-8.4,0-14.2,5.7-14.2,14.1v43h-21.9v-76.3H478v7.3c5.5-6,12.9-9.1,21.7-9.1c10.3,0,18.6,4.3,23.4,11.8
			c6.1-7.8,14.8-11.8,25.4-11.8C565.7,143.5,576.8,154.8,576.8,171.8z"/>
		<path class="st1" d="M668.7,190.7h-56.9c2.7,8.5,10,13.8,19.6,13.8c8.7,0,15.6-4,19.2-8.5l14.7,12.7c-8.1,9.1-20.4,14.8-34.4,14.8
			c-24.3,0-42.5-17.4-42.5-40.4c0-22.5,17.5-39.5,40.7-39.5c22.9,0,40.1,17.1,40.1,40.3C669.2,185.9,669,188.7,668.7,190.7z
			 M611.7,176.2H646c-2.4-8.5-9-13.8-17.2-13.8C620.5,162.4,613.9,167.8,611.7,176.2z"/>
		<path class="st1" d="M727.5,144.1v22.5h-3.3c-13.3,0-20.7,7.6-20.7,19.5v35.6h-21.9v-76.3h21.9v8.7c5.4-6.3,12.4-9.9,20.7-9.9
			H727.5z"/>
	</g>
	<g>
		<g>
			<path class="st0" d="M210.5,240.5H91.3c-25.3,0-45.8-20.5-45.8-45.8V75.5c0-25.3,20.5-45.8,45.8-45.8h119.1
				c25.3,0,45.8,20.5,45.8,45.8v119.1C256.3,219.9,235.7,240.5,210.5,240.5z"/>
			<path class="st3" d="M210.5,244H91.3C64.1,244,42,221.8,42,194.7V75.5c0-27.2,22.1-49.3,49.3-49.3h119.1
				c27.2,0,49.3,22.1,49.3,49.3v119.1C259.8,221.8,237.6,244,210.5,244z M91.3,33.2C68,33.2,49,52.2,49,75.5v119.1
				C49,218,68,237,91.3,237h119.1c23.3,0,42.3-19,42.3-42.3V75.5c0-23.3-19-42.3-42.3-42.3H91.3z"/>
		</g>
		<g>
			<path class="st3" d="M150,52.9v79.7c0,2.1,1.7,3.9,3.9,3.9h79.7c2.2,0,4-1.8,3.9-4c-2-45.2-38.3-81.4-83.4-83.4
				C151.8,48.9,150,50.7,150,52.9z"/>
			<path class="st4" d="M152.6,217.7V138c0-2.1-1.7-3.9-3.9-3.9H69.1c-2.2,0-4,1.8-3.9,4c2,45.2,38.3,81.4,83.4,83.4
				C150.8,221.6,152.6,219.9,152.6,217.7z"/>
		</g>
		<path class="st2" d="M148.6,191.1h7.2c1.9,0,3.5,1.6,3.5,3.5V211c0,1.9-1.6,3.5-3.5,3.5h-7.2c-1.9,0-3.5-1.6-3.5-3.5v-16.5
			C145.1,192.6,146.6,191.1,148.6,191.1z M75.1,127.2h16.6c1.9,0,3.5,1.6,3.5,3.5v10.7c0,1.9-1.6,3.5-3.5,3.5H75.1
			c-1.9,0-3.5-1.6-3.5-3.5v-10.7C71.6,128.8,73.2,127.2,75.1,127.2z M204.4,171.3l6.7,3.9c1.8,1,4,0.3,4.9-1.5c0,0,0,0,0-0.1
			c0.8-1.6,0.2-3.6-1.4-4.6l-6.7-3.9c-1.7-1-3.8-0.4-4.8,1.3l0,0.1C202.1,168.2,202.7,170.3,204.4,171.3z M179.7,193.3l5.3,9.1
			c1,1.8,3.3,2.3,5,1.1c0,0,0,0,0.1,0c1.5-1,1.9-3.1,1-4.6l-5.3-9.1c-1-1.7-3.1-2.2-4.8-1.3l-0.1,0
			C179.3,189.5,178.7,191.7,179.7,193.3z M110.9,203.9L110.9,203.9c-1.7-1-2.3-3.1-1.3-4.8l5.4-9.3c1-1.7,3.1-2.2,4.8-1.3l0.1,0
			c1.7,1,2.2,3.1,1.3,4.8l-5.4,9.3C114.7,204.4,112.6,204.9,110.9,203.9z M82.3,175.4L82.3,175.4c-1-1.7-0.4-3.9,1.2-4.8l9.4-5.4
			c1.7-1,3.8-0.4,4.8,1.3l0,0.1c1,1.7,0.4,3.8-1.3,4.8l-9.4,5.4C85.4,177.7,83.2,177.1,82.3,175.4z M92.9,106.9l-9.4-5.4
			c-1.7-1-2.2-3.1-1.3-4.8l0-0.1c1-1.7,3.1-2.2,4.8-1.3l9.4,5.4c1.7,1,2.2,3.1,1.3,4.8l0,0.1C96.7,107.3,94.6,107.9,92.9,106.9z
			 M115,82.3l-5.4-9.3c-1-1.7-0.4-3.8,1.3-4.8l0.1,0c1.7-1,3.8-0.4,4.8,1.3l5.4,9.3c1,1.7,0.4,3.8-1.3,4.8l-0.1,0
			C118.1,84.6,116,84,115,82.3z"/>
	</g>
</g>
</svg>
