<?xml version="1.0" encoding="utf-8"?>
<!-- Generator: Adobe Illustrator 24.1.2, SVG Export Plug-In . SVG Version: 6.00 Build 0)  -->
<svg version="1.1" id="Capa_1" xmlns="http://www.w3.org/2000/svg" xmlns:xlink="http://www.w3.org/1999/xlink" x="0px" y="0px"
	 viewBox="0 0 762.9 273.7" style="enable-background:new 0 0 762.9 273.7;" xml:space="preserve">
<style type="text/css">
	.st0{fill:#FFFFFF;}
	.st1{fill:#88CB00;}
	.st2{fill:#FD4848;}
	.st3{fill:#C11A1A;}
	.st4{opacity:0.5;fill:#C11A1A;}
</style>
<g>
	<path class="st0" d="M378.4,88.4c0,22.8-15.7,40-36.8,40c-9.3,0-17.2-3.4-23.1-9.4v36.1h-21.9V50.3h21.9v7.6
		c5.8-6,13.8-9.4,23.1-9.4C362.7,48.5,378.4,65.7,378.4,88.4z M355.9,88.4c0-10.8-7.9-18.9-18.7-18.9c-10.8,0-18.7,8.1-18.7,18.9
		c0,10.8,7.9,18.9,18.7,18.9C348,107.3,355.9,99.2,355.9,88.4z"/>
	<path class="st0" d="M428.2,48.5c-23.5,0-41.2,17.2-41.2,40c0,18,11.1,32.5,27.3,37.8c0.3-7.3,6-12.7,13.5-12.7
		c7.6,0,13.4,5.5,13.6,12.9c16.6-5.1,27.9-19.8,27.9-38C469.4,65.7,451.7,48.5,428.2,48.5z M428.2,107.3c-10.8,0-18.7-8.1-18.7-18.9
		c0-10.8,7.9-18.9,18.7-18.9c10.8,0,18.7,8.1,18.7,18.9C446.9,99.2,439,107.3,428.2,107.3z"/>
	<path class="st0" d="M602.9,76.8v49.8h-21.9V83.4c0-8.2-5.2-13.8-13.3-13.8c-8.4,0-14.2,5.7-14.2,14.1v43h-21.9V83.4
		c0-8.2-5.2-13.8-13.3-13.8c-8.4,0-14.2,5.7-14.2,14.1v43h-21.9V50.3h21.9v7.3c5.5-6,12.9-9.1,21.7-9.1c10.3,0,18.6,4.3,23.4,11.8
		c6.1-7.8,14.8-11.8,25.4-11.8C591.9,48.5,602.9,59.7,602.9,76.8z"/>
	<path class="st0" d="M614.5,88.4c0-22.8,17.7-40,41.2-40s41.2,17.2,41.2,40c0,22.8-17.7,40-41.2,40S614.5,111.2,614.5,88.4z
		 M674.3,88.4c0-10.8-7.9-18.9-18.7-18.9s-18.7,8.1-18.7,18.9c0,10.8,7.9,18.9,18.7,18.9S674.3,99.2,674.3,88.4z"/>
	<path class="st1" d="M383.8,167v28c0,5.8,3.1,9.1,9.6,9.1c3.9,0,7.2-1.2,10-2.7v20.5c-4.5,2.2-8.8,3.3-14.7,3.3
		c-18.6,0-26.8-10.9-26.8-26.6V167h-11.5v-19.9H362v-18.9h21.9v18.9h19.6V167H383.8z"/>
	<path class="st2" d="M441.5,126.5c-4.1,1.3-8.6,2-13.2,2c-4.9,0-9.5-0.7-13.8-2.1c0.3-7.3,6-12.7,13.5-12.7
		C435.5,113.6,441.3,119,441.5,126.5z"/>
	<path class="st1" d="M441.5,126.9c0,7.8-5.8,13.5-13.6,13.5c-7.6,0-13.5-5.7-13.5-13.5c0-0.2,0-0.4,0-0.6c4.3,1.4,8.9,2.1,13.8,2.1
		c4.7,0,9.1-0.7,13.2-2C441.5,126.6,441.5,126.8,441.5,126.9z"/>
	<rect x="416.9" y="147.1" class="st1" width="21.9" height="76.3"/>
	<path class="st1" d="M576.8,173.6v49.8h-21.9v-43.3c0-8.2-5.2-13.8-13.3-13.8c-8.4,0-14.2,5.7-14.2,14.1v43h-21.9v-43.3
		c0-8.2-5.2-13.8-13.3-13.8c-8.4,0-14.2,5.7-14.2,14.1v43h-21.9v-76.3H478v7.3c5.5-6,12.9-9.1,21.7-9.1c10.3,0,18.6,4.3,23.4,11.8
		c6.1-7.8,14.8-11.8,25.4-11.8C565.7,145.3,576.8,156.5,576.8,173.6z"/>
	<path class="st1" d="M668.7,192.4h-56.9c2.7,8.5,10,13.8,19.6,13.8c8.7,0,15.6-4,19.2-8.5l14.7,12.7c-8.1,9.1-20.4,14.8-34.4,14.8
		c-24.3,0-42.5-17.4-42.5-40.4c0-22.5,17.5-39.5,40.7-39.5c22.9,0,40.1,17.1,40.1,40.3C669.2,187.7,669,190.5,668.7,192.4z
		 M611.7,177.9H646c-2.4-8.5-9-13.8-17.2-13.8C620.5,164.2,613.9,169.5,611.7,177.9z"/>
	<path class="st1" d="M727.5,145.9v22.5h-3.3c-13.3,0-20.7,7.6-20.7,19.5v35.6h-21.9v-76.3h21.9v8.7c5.4-6.3,12.4-9.9,20.7-9.9
		H727.5z"/>
</g>
<g>
	<g>
		<path class="st2" d="M210.5,242.2H91.3c-25.3,0-45.8-20.5-45.8-45.8V77.3C45.5,52,66,31.5,91.3,31.5h119.1
			c25.3,0,45.8,20.5,45.8,45.8v119.1C256.3,221.7,235.7,242.2,210.5,242.2z"/>
		<path class="st0" d="M210.5,245.7H91.3c-27.2,0-49.3-22.1-49.3-49.3V77.3C42,50.1,64.1,28,91.3,28h119.1
			c27.2,0,49.3,22.1,49.3,49.3v119.1C259.8,223.6,237.6,245.7,210.5,245.7z M91.3,35C68,35,49,54,49,77.3v119.1
			c0,23.3,19,42.3,42.3,42.3h119.1c23.3,0,42.3-19,42.3-42.3V77.3c0-23.3-19-42.3-42.3-42.3H91.3z"/>
	</g>
	<g>
		<path class="st3" d="M150,54.6v79.7c0,2.1,1.7,3.9,3.9,3.9h79.7c2.2,0,4-1.8,3.9-4c-2-45.2-38.3-81.4-83.4-83.4
			C151.8,50.7,150,52.5,150,54.6z"/>
		<path class="st4" d="M152.6,219.4v-79.7c0-2.1-1.7-3.9-3.9-3.9H69.1c-2.2,0-4,1.8-3.9,4c2,45.2,38.3,81.4,83.4,83.4
			C150.8,223.4,152.6,221.6,152.6,219.4z"/>
	</g>
	<path class="st0" d="M148.6,192.8h7.2c1.9,0,3.5,1.6,3.5,3.5v16.5c0,1.9-1.6,3.5-3.5,3.5h-7.2c-1.9,0-3.5-1.6-3.5-3.5v-16.5
		C145.1,194.4,146.6,192.8,148.6,192.8z M75.1,129h16.6c1.9,0,3.5,1.6,3.5,3.5v10.7c0,1.9-1.6,3.5-3.5,3.5H75.1
		c-1.9,0-3.5-1.6-3.5-3.5v-10.7C71.6,130.6,73.2,129,75.1,129z M204.4,173.1l6.7,3.9c1.8,1,4,0.3,4.9-1.5c0,0,0,0,0-0.1
		c0.8-1.6,0.2-3.6-1.4-4.6l-6.7-3.9c-1.7-1-3.8-0.4-4.8,1.3l0,0.1C202.1,170,202.7,172.1,204.4,173.1z M179.7,195.1l5.3,9.1
		c1,1.8,3.3,2.3,5,1.1c0,0,0,0,0.1,0c1.5-1,1.9-3.1,1-4.6l-5.3-9.1c-1-1.7-3.1-2.2-4.8-1.3l-0.1,0
		C179.3,191.3,178.7,193.4,179.7,195.1z M110.9,205.7L110.9,205.7c-1.7-1-2.3-3.1-1.3-4.8l5.4-9.3c1-1.7,3.1-2.2,4.8-1.3l0.1,0
		c1.7,1,2.2,3.1,1.3,4.8l-5.4,9.3C114.7,206.1,112.6,206.7,110.9,205.7z M82.3,177.2L82.3,177.2c-1-1.7-0.4-3.9,1.2-4.8l9.4-5.4
		c1.7-1,3.8-0.4,4.8,1.3l0,0.1c1,1.7,0.4,3.8-1.3,4.8l-9.4,5.4C85.4,179.5,83.2,178.9,82.3,177.2z M92.9,108.7l-9.4-5.4
		c-1.7-1-2.2-3.1-1.3-4.8l0-0.1c1-1.7,3.1-2.2,4.8-1.3l9.4,5.4c1.7,1,2.2,3.1,1.3,4.8l0,0.1C96.7,109.1,94.6,109.7,92.9,108.7z
		 M115,84.1l-5.4-9.3c-1-1.7-0.4-3.8,1.3-4.8l0.1,0c1.7-1,3.8-0.4,4.8,1.3l5.4,9.3c1,1.7,0.4,3.8-1.3,4.8l-0.1,0
		C118.1,86.3,116,85.8,115,84.1z"/>
</g>
</svg>
