<?xml version="1.0" encoding="utf-8"?>
<!-- Generator: Adobe Illustrator 24.1.2, SVG Export Plug-In . SVG Version: 6.00 Build 0)  -->
<svg version="1.1" id="Layer_1" xmlns="http://www.w3.org/2000/svg" xmlns:xlink="http://www.w3.org/1999/xlink" x="0px" y="0px"
	 viewBox="0 0 200 200" style="enable-background:new 0 0 200 200;" xml:space="preserve">
<style type="text/css">
	.st0{fill:#FFFFFF;}
</style>
<g>
	<g>
		<path class="st0" d="M75.8,75.6c0.5,0.3,1.1,0.5,1.7,0.5h0c1.2,0,2.4-0.7,2.9-1.9c0.3-0.7,0.3-1.4,0.1-2c-1.8-7.7-0.9-14,2.5-18.5
			c4-5.4,5.8-12.3,4.8-18.4c-0.9-5.5-3.9-10-8.5-13.1c-1-0.7-2.4-0.7-3.5,0c-1,0.7-1.5,2-1.2,3.2c1.9,8.1,0.2,13.3-4.2,21.1
			c-2.7,4.9-3.8,10.4-3.1,15.4C68,67.6,71,72.4,75.8,75.6z"/>
		<path class="st0" d="M101,74c0.5,0.3,1,0.5,1.6,0.5h0c1.2,0,2.2-0.7,2.7-1.7c0.3-0.7,0.3-1.3,0.1-2c-1.3-5.9-0.7-10.6,1.9-14.1
			c3.2-4.3,4.7-9.8,3.8-14.8c-0.7-4.4-3.1-8.1-6.8-10.6c-1-0.6-2.3-0.7-3.3,0c-1,0.7-1.4,1.9-1.2,3c1.5,6.2,0.1,10.2-3.2,16.2
			c-2.2,3.9-3.1,8.3-2.5,12.3C94.7,67.6,97.1,71.4,101,74z"/>
		<path class="st0" d="M180.4,92.5c-1.9-2.3-4.7-3.5-7.8-3.5h-14.4c0.1-2.4-0.3-5.4-2-7.4c-1.3-1.5-3-2.3-5.2-2.3H28.1
			c-3.2,0-5.1,1.4-6.1,2.6c-2,2.4-2.3,6-1.9,8.5c3.4,20.9,10.7,39.8,20.7,53.4c7.3,10,16,17.2,25.7,21.4H33.1
			c-4.1,0-7.7,3.1-7.9,7.1c-0.3,4.4,3.2,8.1,7.6,8.1h112.4c4.1,0,7.7-3.1,7.9-7.1c0.3-4.4-3.2-8.1-7.6-8.1h-33.7
			c8.1-3.5,15.3-8.9,21.7-16.3c11-0.9,22-6.2,31.3-15c9.6-9,16.1-20.5,17.9-31.5C183.1,101,183.5,96.2,180.4,92.5z M146.3,129.5
			c4.1-8.5,7-17.2,9.1-25.2H167C164,113.7,156.1,123.7,146.3,129.5z"/>
	</g>
	<g>
	</g>
	<g>
	</g>
	<g>
	</g>
	<g>
	</g>
	<g>
	</g>
	<g>
	</g>
	<g>
	</g>
	<g>
	</g>
	<g>
	</g>
	<g>
	</g>
	<g>
	</g>
	<g>
	</g>
	<g>
	</g>
	<g>
	</g>
	<g>
	</g>
</g>
</svg>
