<?xml version="1.0" encoding="utf-8"?>
<!-- Generator: Adobe Illustrator 24.1.2, SVG Export Plug-In . SVG Version: 6.00 Build 0)  -->
<svg version="1.1" id="Layer_1" xmlns="http://www.w3.org/2000/svg" xmlns:xlink="http://www.w3.org/1999/xlink" x="0px" y="0px"
	 viewBox="0 0 200 200" style="enable-background:new 0 0 200 200;" xml:space="preserve">
<style type="text/css">
	.st0{fill:#C11A1A;}
</style>
<path class="st0" d="M150.8,67c-1.2-1.2-2.9-1.7-4.6-1.5c-1.7,0.3-3.1,1.3-3.9,2.9c-2.7,5.2-6.1,10-10.1,14.3
	c0.4-3.1,0.6-6.1,0.6-9.2c0-5.9-0.8-12-2.4-18.1c-5.2-20.1-18.7-37-37.1-46.6c-1.6-0.8-3.5-0.8-5.1,0.1c-1.6,0.9-2.6,2.5-2.8,4.3
	c-1.4,18.2-10.8,34.8-25.8,45.5c-0.2,0.1-0.4,0.3-0.6,0.4c-0.4,0.3-0.8,0.6-1.1,0.8c-0.1,0-0.1,0.1-0.2,0.1
	c-9.4,6.7-17.2,15.7-22.4,26c-5.4,10.4-8.1,21.6-8.1,33.3c0,5.9,0.8,12,2.4,18.1C37.8,169.5,66.8,192,100,192
	c40.2,0,72.8-32.7,72.8-72.9C172.9,99.3,165,80.8,150.8,67L150.8,67z"/>
</svg>
