<?xml version="1.0" encoding="utf-8"?>
<!-- Generator: Adobe Illustrator 24.1.2, SVG Export Plug-In . SVG Version: 6.00 Build 0)  -->
<svg version="1.1" id="Layer_1" xmlns="http://www.w3.org/2000/svg" xmlns:xlink="http://www.w3.org/1999/xlink" x="0px" y="0px"
	 viewBox="0 0 512 512" style="enable-background:new 0 0 512 512;" xml:space="preserve">
<style type="text/css">
	.st0{fill:#F9F4F4;}
</style>
<path class="st0" d="M397.3,163.9c-3.4-3.3-8.2-4.8-12.9-4.1c-4.7,0.8-8.7,3.7-10.9,7.9c-7.5,14.5-17,27.9-28.2,39.7
	c1.1-8.5,1.7-17.1,1.7-25.7c0-16.5-2.2-33.5-6.6-50.5c-14.4-55.9-52-103.1-103.3-129.6c-4.5-2.3-9.8-2.2-14.2,0.2
	c-4.4,2.4-7.3,6.9-7.7,11.9c-4,50.8-30.1,96.9-71.8,126.7c-0.6,0.4-1.1,0.8-1.6,1.2c-1.1,0.8-2.2,1.6-3.2,2.3
	c-0.2,0.1-0.3,0.2-0.5,0.3c-26.2,18.7-47.8,43.7-62.5,72.3c-14.9,29-22.5,60.2-22.5,92.6c0,16.5,2.2,33.5,6.6,50.5
	C82.8,449.4,163.5,512,256,512c111.8,0,202.8-91,202.8-202.8C458.8,254.1,436.9,202.5,397.3,163.9L397.3,163.9z"/>
</svg>
