<?xml version="1.0" encoding="utf-8"?>
<!-- Generator: Adobe Illustrator 24.1.2, SVG Export Plug-In . SVG Version: 6.00 Build 0)  -->
<svg version="1.1" id="Layer_1" xmlns="http://www.w3.org/2000/svg" xmlns:xlink="http://www.w3.org/1999/xlink" x="0px" y="0px"
	 viewBox="0 0 200 200" style="enable-background:new 0 0 200 200;" xml:space="preserve">
<style type="text/css">
	.st0{fill:#FFFFFF;}
</style>
<path class="st0" d="M159.9,0H39.8C17.8,0,0,17.8,0,39.8V160c0,22,17.8,39.8,39.8,39.8h120.1c22,0,39.8-17.8,39.8-39.8V39.8
	C199.7,17.8,181.9,0,159.9,0z M192.7,158.3c0,19.1-15.5,34.6-34.5,34.6H41.5C22.5,192.8,7,177.4,7,158.3V41.6C7,22.5,22.5,7,41.5,7
	h116.6c19.1,0,34.5,15.5,34.5,34.6V158.3z"/>
<path class="st0" d="M72.5,138.5h54.9c6.1,0,11-4.9,11-11V72.5c0-6.1-4.9-11-11-11H72.5c-6.1,0-11,4.9-11,11v54.9
	C61.5,133.6,66.4,138.5,72.5,138.5z"/>
</svg>
