<?xml version="1.0" encoding="utf-8"?>
<!-- Generator: Adobe Illustrator 24.1.2, SVG Export Plug-In . SVG Version: 6.00 Build 0)  -->
<svg version="1.1" id="Layer_1" xmlns="http://www.w3.org/2000/svg" xmlns:xlink="http://www.w3.org/1999/xlink" x="0px" y="0px"
	 viewBox="0 0 200 200" style="enable-background:new 0 0 200 200;" xml:space="preserve">
<style type="text/css">
	.st0{fill:#FFFFFF;}
</style>
<g id="_09-timer">
	<path class="st0" d="M158,62.5l11.6-11.6l-11.4-11.4l-12.4,12.4c-11.3-8-24.5-12.9-38.3-14.3V21.1h16.1V5H75.4v16.1h16.1v16.5
		c-13.8,1.4-27,6.3-38.3,14.3L40.8,39.5L29.5,50.9L41,62.5C10.5,94.8,12,145.7,44.3,176.2c32.3,30.5,83.2,29.1,113.8-3.2
		C187.3,142,187.3,93.5,158,62.5L158,62.5z M99.5,182c-35.6,0-64.4-28.8-64.4-64.4S64,53.3,99.5,53.3s64.4,28.8,64.4,64.4
		C163.9,153.2,135.1,182,99.5,182z"/>
	<path class="st0" d="M99.5,69.4v48.3H51.2c0,26.7,21.6,48.3,48.3,48.3s48.3-21.6,48.3-48.3S126.2,69.4,99.5,69.4z"/>
</g>
</svg>
